PathFileType	4	(X/Y/Z)	./resultDataOpenSim/trcMotMarkerGrf/sub06/qtm-14-06.trc
DataRate	CameraRate	NumFrames	NumMarkers	Units	OrigDataRate	OrigDataStartFrame	OrigNumFrames
250.000000	250.000000	8	24	m	250.000000	397	529
Frame#	Time	L.Toe.Tip			R.Toe.Tip			L.Ankle.Lat			R.Ankle.Lat			L.Ankle.Med			R.Ankle.Med			L.Heel			R.Heel			L.Knee.Lat			R.Knee.Lat			L.Knee.Med			R.Knee.Med			L.Thigh.Upper			R.Thigh.Upper			L.ASIS			R.ASIS			V.Sacral			L.Acromium			R.Acromium			C7			L.Elbow			R.Elbow			L.Wrist.Lat			R.Wrist.Lat
		X1	Y1	Z1	X2	Y2	Z2	X3	Y3	Z3	X4	Y4	Z4	X5	Y5	Z5	X6	Y6	Z6	X7	Y7	Z7	X8	Y8	Z8	X9	Y9	Z9	X10	Y10	Z10	X11	Y11	Z11	X12	Y12	Z12	X13	Y13	Z13	X14	Y14	Z14	X15	Y15	Z15	X16	Y16	Z16	X17	Y17	Z17	X18	Y18	Z18	X19	Y19	Z19	X20	Y20	Z20	X21	Y21	Z21	X22	Y22	Z22	X23	Y23	Z23	X24	Y24	Z24

397	1.584	1.5393297	0.091295592	-0.13353304	0.89215507	0.034942972	0.045505854	1.410455	0.092786576	-0.15425881	0.77846292	0.10458873	0.079203093	1.4092745	0.10646008	-0.070625344	0.80318816	0.1225832	-0.0064799088	1.3495912	0.042188385	-0.11000644	0.71957811	0.10875951	0.021661831	1.3485711	0.45974651	-0.14732418	0.9893899	0.43889089	0.10595018	1.3354307	0.44851901	-0.026382829	0.96481799	0.44077143	-0.024155702	1.1635667	0.80707472	-0.18494607	1.0923514	0.78682693	0.15611795	1.2233675	0.85051821	-0.12815439	1.2007855	0.83915003	0.11874759	1.0261638	0.91902302	-0.013708936	1.1108034	1.3269588	-0.1970196	1.1609044	1.3266754	0.15763776	1.0565699	1.3554964	-0.0082603128	0.99697988	1.0380999	-0.23350058	1.238383	1.0213299	0.26481993	1.041679	0.81136559	-0.30768144	1.4576958	1.0664641	0.14648566
398	1.588	1.5493667	0.091859107	-0.13263386	0.89234583	0.034918666	0.045601656	1.4204967	0.091833937	-0.15355818	0.77959402	0.10588189	0.079821928	1.4190071	0.10562244	-0.070039077	0.80463108	0.12374281	-0.0058675113	1.3601746	0.040440352	-0.10954349	0.72093878	0.11100061	0.022462834	1.3545778	0.45757879	-0.14666086	0.99452396	0.43812537	0.10602561	1.3384153	0.44554317	-0.025734328	0.96991304	0.44009134	-0.02412167	1.170724	0.80547666	-0.18539798	1.0991904	0.78525149	0.1556457	1.2305699	0.84924179	-0.12850909	1.2074126	0.83773154	0.11831865	1.0354893	0.91695229	-0.011096386	1.1172359	1.325551	-0.19767274	1.1670229	1.3253571	0.15699831	1.0627642	1.3540253	-0.0089663759	1.002873	1.0370564	-0.23386956	1.2448963	1.0199598	0.26425106	1.04615	0.81015638	-0.30827085	1.4637795	1.0661078	0.14523782
399	1.592	1.5586011	0.092109763	-0.13171008	0.89257895	0.034903473	0.045708645	1.4297434	0.090754916	-0.15277811	0.78086337	0.10722794	0.080485668	1.4280079	0.10462943	-0.069337287	0.80617014	0.12494674	-0.0052193913	1.3698961	0.038618252	-0.10888366	0.72241211	0.11332402	0.023279529	1.3608188	0.45559886	-0.14598174	0.99983523	0.43729566	0.10610503	1.341205	0.44262397	-0.02512067	0.97522916	0.43935371	-0.024044096	1.1779399	0.80386218	-0.18586313	1.1059657	0.78371034	0.15515621	1.2377969	0.84797557	-0.12889362	1.2140965	0.83632355	0.11789515	1.0439608	0.91506469	-0.0098260626	1.1237165	1.3241212	-0.19835405	1.1731473	1.3240231	0.15634836	1.0689882	1.3525376	-0.0097003503	1.0088434	1.0359717	-0.23425207	1.2512926	1.0185674	0.2636502	1.0508016	0.80892211	-0.30887523	1.4698149	1.0655942	0.1440391
400	1.596	1.5671426	0.091914996	-0.13072329	0.89285107	0.034896013	0.045821641	1.4382401	0.089512969	-0.15194392	0.78233396	0.10865467	0.081190204	1.4363666	0.10345415	-0.068506918	0.80781751	0.12619604	-0.0045328217	1.3787717	0.036683376	-0.10806869	0.72401919	0.11573078	0.024098042	1.367249	0.45381687	-0.14528488	1.0053289	0.43639849	0.10619028	1.3445397	0.43985929	-0.02449228	0.98078064	0.43856702	-0.023916303	1.1852135	0.8022405	-0.18632606	1.1125978	0.78225852	0.15465022	1.2450438	0.84670744	-0.12930713	1.2208226	0.83492866	0.11746146	1.051269	0.91352052	-0.010848307	1.1302451	1.3226708	-0.19906462	1.1792731	1.3226742	0.15568881	1.0752318	1.3510413	-0.010471282	1.0148898	1.034851	-0.23464571	1.2575755	1.017175	0.26300438	1.0556222	0.80766069	-0.30950797	1.4757975	1.0649238	0.14289008
401	1.6	1.5750816	0.091170054	-0.12965136	0.89314761	0.034884727	0.045939056	1.4460391	0.088082423	-0.15108724	0.78399409	0.1101673	0.081920036	1.4441742	0.10208321	-0.067551953	0.80958571	0.12748951	-0.0038156129	1.3867974	0.034662493	-0.10715606	0.72578056	0.11822303	0.024915473	1.3738014	0.45223343	-0.14457202	1.0110149	0.43542762	0.10629266	1.3487194	0.43733195	-0.0238364	0.98656389	0.43771402	-0.023742377	1.1925395	0.80061502	-0.18676954	1.1190939	0.78089555	0.15416096	1.2523081	0.84542584	-0.12974484	1.2275985	0.83354678	0.11702216	1.0578812	0.91217981	-0.013303645	1.1368215	1.3212008	-0.19979875	1.1853977	1.321312	0.15501807	1.0814943	1.3495329	-0.011281525	1.0210124	1.0336976	-0.23505222	1.2637521	1.0157674	0.26233697	1.0606044	0.80637554	-0.31017592	1.48172	1.064101	0.1417942
402	1.604	1.5823932	0.089883003	-0.12851879	0.89346273	0.034863526	0.046074642	1.4531842	0.086436155	-0.15022531	0.78580546	0.11174797	0.082658721	1.4513974	0.10048459	-0.066517324	0.8114829	0.12882933	-0.0030746368	1.393927	0.032731375	-0.106203	0.72770777	0.12080453	0.025735684	1.3803934	0.45081961	-0.14386371	1.0169	0.43438139	0.10642598	1.3535449	0.43509591	-0.023186358	0.99258766	0.43675964	-0.023522732	1.1999119	0.7989936	-0.18718853	1.1254585	0.779617	0.1537255	1.2595883	0.84412171	-0.13019741	1.2344537	0.83217198	0.11662459	1.0643966	0.91082378	-0.015876862	1.1434456	1.3197145	-0.20055133	1.1915192	1.3199383	0.15433603	1.0877881	1.3480055	-0.012120332	1.0272107	1.032511	-0.23547741	1.2698404	1.0143236	0.26167349	1.0657487	0.80507216	-0.31086823	1.4875795	1.0631292	0.14075581
403	1.608	1.5889773	0.088148466	-0.1273641	0.89380898	0.034836166	0.046251246	1.4596953	0.084540896	-0.14934716	0.78775419	0.11338359	0.083401359	1.4579076	0.098600953	-0.065468836	0.81352223	0.13021361	-0.0023121188	1.400074	0.031251322	-0.10529736	0.72980091	0.12348607	0.026560202	1.3869355	0.44951928	-0.14319178	1.0229822	0.43326532	0.10659658	1.3587432	0.43319248	-0.022581036	0.99887092	0.4356752	-0.023260534	1.2073242	0.79739184	-0.1875918	1.1316148	0.77844851	0.15335928	1.2668861	0.84278678	-0.13065693	1.2414034	0.83079709	0.11632096	1.0710277	0.90939641	-0.017939766	1.1501199	1.3182181	-0.20132842	1.197635	1.3185532	0.15364687	1.094123	1.3464621	-0.012981659	1.0334863	1.0312899	-0.23593061	1.2758476	1.0128356	0.26102478	1.071058	0.80375265	-0.31156786	1.4933772	1.062016	0.13977754
404	1.612	1.5948128	0.085967771	-0.12614759	0.89420813	0.034807882	0.046481469	1.4655831	0.082373067	-0.1484233	0.78984699	0.11508007	0.084150616	1.4636652	0.096381469	-0.064431777	0.81572513	0.131635	-0.0015248806	1.4051719	0.030577391	-0.10456638	0.73206154	0.12628123	0.027383448	1.3933486	0.44826653	-0.14257737	1.0292566	0.4320877	0.10680527	1.3641643	0.43162973	-0.022033789	1.0054088	0.43446133	-0.022967715	1.2147716	0.79582279	-0.1879844	1.1376118	0.77737324	0.15298194	1.2742017	0.84141677	-0.13112471	1.2484158	0.82942171	0.11609451	1.0777472	0.9079476	-0.019555588	1.1568491	1.3167152	-0.20214375	1.2037477	1.3171545	0.15295414	1.1004959	1.3449084	-0.013876917	1.039845	1.0300344	-0.23641658	1.2817527	1.0113033	0.26038856	1.0765371	0.80241635	-0.31227202	1.4991187	1.0607753	0.13885771
